<?xml version="1.0" standalone="no"?>
<!DOCTYPE svg PUBLIC "-//W3C//DTD SVG 20010904//EN"
 "http://www.w3.org/TR/2001/REC-SVG-20010904/DTD/svg10.dtd">
<svg version="1.0" xmlns="http://www.w3.org/2000/svg"
 width="400.000000pt" height="400.000000pt" viewBox="0 0 400.000000 400.000000"
 preserveAspectRatio="xMidYMid meet">
<metadata>
Created by potrace 1.14, written by Peter Selinger 2001-2017
</metadata>
<g transform="translate(0.000000,400.000000) scale(0.100000,-0.100000)"
fill="#000000" stroke="none">
<path d="M0 3849 l0 -134 248 2 c136 1 330 6 432 10 239 9 282 8 325 -12 44
-21 151 -128 175 -176 25 -48 33 -124 60 -614 5 -93 14 -204 20 -245 20 -137
24 -296 9 -347 -15 -56 -14 -89 5 -117 12 -20 28 -81 40 -156 4 -20 15 -41 26
-48 24 -15 24 -20 6 168 -11 114 -11 142 1 183 7 26 18 47 23 47 5 0 8 38 6
88 -1 48 -8 260 -15 472 -7 212 -15 470 -19 574 l-8 188 -29 24 c-17 13 -51
31 -77 40 -27 9 -62 31 -85 54 -62 65 -82 69 -334 70 -123 0 -253 5 -289 10
-42 6 -98 6 -158 -1 -85 -9 -102 -8 -205 15 -62 14 -122 29 -134 32 l-23 6 0
-133z"/>
<path d="M1965 3038 c-93 -17 -220 -60 -267 -90 -139 -88 -235 -258 -257 -458
-8 -69 -7 -89 5 -107 8 -13 21 -23 29 -23 8 0 15 -4 15 -9 0 -6 18 2 40 16 41
27 39 44 -6 35 -19 -3 -23 -1 -18 12 3 9 9 14 13 12 4 -3 13 0 21 5 13 8 13
11 0 22 -9 7 -15 24 -14 40 2 19 -2 27 -13 27 -11 0 -14 -7 -9 -27 4 -19 4
-23 -3 -14 -5 7 -13 11 -18 8 -28 -17 20 142 50 164 4 3 7 10 5 15 -4 13 39
54 48 46 4 -4 4 -2 1 5 -4 6 4 20 18 31 14 11 25 25 25 32 0 6 26 37 58 68 56
56 78 66 177 88 17 4 36 11 43 17 6 5 12 6 12 2 0 -4 6 -2 13 4 8 6 17 8 21 4
4 -4 11 -1 16 7 7 10 10 11 10 3 0 -15 36 -17 45 -3 10 16 36 12 51 -7 11 -15
15 -15 23 -4 6 9 11 10 15 2 4 -6 11 -9 15 -7 12 8 81 -14 81 -24 0 -6 5 -10
10 -10 6 0 10 7 10 15 0 8 5 15 10 15 6 0 10 -5 10 -11 0 -13 20 -33 43 -42
11 -4 17 -2 17 9 0 8 5 12 10 9 6 -3 10 -17 10 -31 0 -14 6 -31 13 -38 14 -14
57 -31 70 -28 4 1 7 -5 7 -13 0 -8 6 -15 13 -15 15 0 44 -50 77 -133 12 -32
25 -56 27 -53 8 8 -57 168 -88 217 -72 113 -200 198 -329 218 -74 12 -86 12
-155 -1z m-470 -589 c6 -9 -26 -49 -40 -49 -7 0 -6 45 2 53 10 11 31 8 38 -4z"/>
<path d="M1550 2566 c0 -12 -5 -16 -16 -12 -10 4 -14 1 -12 -6 7 -21 26 -20
33 2 4 12 4 24 1 27 -3 4 -6 -2 -6 -11z"/>
<path d="M2548 2514 c-4 -6 -10 -41 -14 -78 -6 -62 -8 -66 -28 -60 -11 4 -32
15 -46 24 -19 14 -56 20 -160 25 -74 4 -142 7 -150 7 -22 0 -104 20 -115 28
-40 29 -351 51 -382 28 -6 -5 -14 -22 -18 -37 -4 -17 -16 -31 -33 -38 -24 -10
-22 -11 18 -7 25 3 51 1 59 -4 9 -6 16 -41 21 -96 10 -105 30 -143 88 -172 63
-30 80 -45 75 -64 -6 -21 21 -34 45 -21 19 9 68 5 91 -9 13 -8 12 -9 -7 -10
-12 0 -33 -7 -47 -16 -26 -17 -53 -9 -88 27 -25 27 -46 23 -53 -8 -4 -16 -17
-38 -29 -50 -13 -12 -29 -39 -35 -59 -12 -36 -13 -37 -29 -18 -9 11 -25 18
-38 16 -18 -3 -23 2 -23 17 0 14 -6 21 -20 21 -12 0 -17 5 -14 14 7 17 -27 31
-37 15 -4 -8 -10 2 -14 24 -10 51 -27 99 -47 128 l-16 24 -20 -23 c-11 -13
-24 -23 -28 -22 -5 1 -10 -3 -12 -9 -2 -6 2 -11 8 -11 8 0 10 -9 4 -27 -10
-37 -13 -294 -3 -313 4 -8 15 -43 24 -77 9 -34 34 -92 55 -128 22 -35 40 -67
40 -70 0 -25 -108 78 -171 162 -39 53 -54 60 -145 76 -40 8 -67 -11 -62 -44 4
-29 -23 -63 -64 -80 -26 -11 -28 -15 -22 -43 9 -38 9 -41 0 -92 -5 -27 -3 -44
3 -49 6 -3 11 -11 11 -17 0 -6 -6 -5 -16 3 -12 10 -14 24 -9 70 4 35 3 65 -4
76 -9 16 -10 15 -11 -8 0 -25 -21 -37 -307 -179 -321 -159 -358 -181 -435
-252 -25 -24 -69 -63 -97 -87 -61 -51 -99 -104 -153 -214 -23 -45 -52 -98 -65
-117 -20 -30 -23 -47 -22 -120 l0 -85 22 43 c25 49 43 57 23 10 -8 -18 -21
-49 -30 -70 -13 -29 -16 -77 -16 -252 l0 -216 1186 0 1186 0 -7 48 c-20 133
-169 498 -244 597 -17 22 -50 74 -75 115 -25 41 -63 95 -86 120 -22 24 -40 47
-40 51 0 20 -141 150 -189 174 -76 38 -95 58 -88 92 5 25 -3 37 -72 103 -72
71 -130 140 -116 140 12 0 49 -22 135 -80 271 -181 437 -258 576 -267 79 -6
81 -5 103 23 19 24 22 38 18 74 l-5 45 24 -30 c13 -16 29 -45 35 -63 9 -26 15
-31 30 -27 15 5 20 0 25 -25 5 -23 21 -41 63 -70 31 -21 68 -51 82 -66 41 -45
200 -306 267 -439 34 -66 90 -172 126 -235 36 -63 83 -152 103 -198 l37 -82
104 0 c79 0 103 3 99 13 -2 6 -10 37 -17 67 -17 68 -25 79 -74 101 -33 14 -43
27 -70 90 -18 41 -40 90 -49 109 -9 19 -33 73 -55 120 -21 47 -58 118 -81 159
-23 41 -48 102 -56 135 -27 123 -49 167 -117 231 -60 56 -160 122 -268 175
-87 44 -210 122 -220 140 -15 29 -12 39 14 46 15 3 27 15 30 30 4 13 12 24 20
24 7 0 21 19 32 43 10 23 23 47 29 52 6 6 19 37 29 70 23 73 52 141 76 175 24
35 48 137 43 183 -6 40 -23 62 -23 28 0 -11 -5 -23 -12 -27 -6 -4 -8 -3 -5 3
12 19 -46 27 -59 9 -16 -22 -23 -20 -34 9 -5 14 -15 25 -22 25 -9 0 -8 -3 2
-10 12 -8 9 -10 -12 -10 -14 0 -33 3 -42 6 -33 13 -14 20 52 18 109 -2 137 9
176 69 19 29 40 72 47 96 10 33 20 47 40 55 20 7 29 18 32 40 6 40 4 43 -44
56 -56 15 -67 1 -67 -86 0 -38 3 -73 8 -79 12 -14 -47 -98 -80 -114 -49 -23
-104 -25 -153 -3 -26 12 -47 25 -47 30 0 5 28 10 62 11 73 3 81 6 73 32 -6 17
-3 19 19 13 19 -4 26 -2 26 9 0 22 57 90 63 75 3 -7 6 -2 6 11 1 13 -2 21 -6
18 -14 -14 -33 17 -33 54 0 32 3 39 20 39 13 0 19 6 18 18 -1 9 1 42 6 73 8
60 5 102 -6 83z m-788 -75 c0 -5 -5 -7 -11 -3 -7 4 -10 1 -7 -7 3 -10 24 -14
71 -15 37 0 70 -3 73 -7 4 -4 -4 -7 -17 -7 -26 0 -81 -18 -116 -38 -25 -14
-31 -38 -10 -39 34 -1 98 -26 107 -43 12 -23 -2 -30 -47 -19 -18 4 -33 5 -33
3 0 -10 36 -44 47 -44 7 0 13 -5 13 -11 0 -6 -6 -9 -13 -6 -8 3 -20 1 -28 -4
-11 -7 -9 -10 9 -15 12 -4 22 -9 22 -13 0 -4 9 -7 20 -8 11 -1 27 -9 35 -17
14 -13 11 -14 -22 -9 -85 13 -128 56 -138 136 -4 36 -1 66 9 95 8 24 11 40 6
37 -13 -8 -13 1 0 26 11 20 30 26 30 8z m270 -78 c0 -27 -17 -35 -23 -11 -5
19 0 30 15 30 4 0 8 -9 8 -19z m450 -1 c0 -5 -4 -10 -10 -10 -5 0 -10 5 -10
10 0 6 5 10 10 10 6 0 10 -4 10 -10z m-393 -50 c-14 -66 -71 -160 -98 -160 -5
0 -12 8 -15 18 -3 9 -10 25 -15 34 -7 14 -4 19 19 24 27 7 89 71 84 87 -1 5 2
6 8 2 5 -3 10 1 10 9 0 9 3 16 6 16 4 0 4 -13 1 -30z m103 -35 c0 -21 46 -159
61 -183 16 -25 4 -42 -14 -20 -21 26 -74 31 -97 8 -11 -11 -20 -24 -20 -30 0
-5 -5 -10 -11 -10 -5 0 -8 4 -4 9 10 17 -34 33 -82 30 -26 -2 -48 1 -49 6 -2
6 13 21 32 35 20 14 43 33 52 43 27 28 82 127 72 127 -5 0 -7 7 -4 15 5 13 9
13 35 -1 16 -8 29 -21 29 -29z m300 31 c6 -8 10 -25 8 -38 -4 -21 -6 -20 -22
12 -14 29 -16 30 -12 9 4 -18 1 -29 -9 -33 -19 -7 -21 34 -3 52 16 16 23 15
38 -2z m106 -122 c-4 -9 -9 -15 -11 -12 -3 3 -3 13 1 22 4 9 9 15 11 12 3 -3
3 -13 -1 -22z m-546 -128 c0 -2 -7 -6 -15 -10 -8 -3 -15 -1 -15 4 0 6 7 10 15
10 8 0 15 -2 15 -4z m241 -103 c13 -17 13 -17 -6 -3 -11 8 -22 16 -24 17 -2 2
0 3 6 3 6 0 17 -8 24 -17z m-312 -24 c-8 -5 -21 -9 -29 -9 -12 1 -11 4 4 15
10 8 23 12 29 8 5 -3 3 -9 -4 -14z m37 -60 c3 -5 16 -9 29 -9 13 0 26 -4 29
-8 6 -10 -30 -52 -44 -52 -15 0 -12 -17 5 -34 22 -21 25 -96 4 -96 -5 0 -7 6
-3 13 4 6 -7 -3 -24 -20 -31 -32 -56 -38 -129 -36 -7 1 -13 -5 -13 -13 0 -8
-9 -14 -20 -14 -14 0 -20 7 -20 23 0 15 -9 29 -24 37 -16 8 -23 19 -21 32 4
19 -13 68 -24 68 -3 0 -7 14 -8 30 -2 21 2 30 13 30 8 0 22 4 32 9 60 29 91
41 117 44 58 6 95 5 101 -4z m114 -29 c0 -5 -7 -10 -15 -10 -8 0 -15 5 -15 10
0 6 7 10 15 10 8 0 15 -4 15 -10z m87 -72 c-3 -7 -5 -2 -5 12 0 14 2 19 5 13
2 -7 2 -19 0 -25z m-10 -106 c4 -18 1 -29 -11 -38 -22 -16 -40 -9 -53 19 -14
31 -7 42 27 43 24 1 31 -3 37 -24z m-1042 -305 c7 -18 30 -50 50 -71 34 -36
42 -59 20 -57 -6 1 -13 13 -17 27 -4 15 -16 32 -26 40 -22 15 -64 94 -50 94 5
0 15 -15 23 -33z m1072 -48 c-3 -11 2 -43 10 -70 16 -50 14 -67 -7 -54 -21 13
-28 51 -18 98 5 26 12 47 15 47 3 0 3 -9 0 -21z m-730 -41 c-3 -8 -6 -5 -6 6
-1 11 2 17 5 13 3 -3 4 -12 1 -19z m-52 -28 c3 -5 -1 -10 -9 -10 -9 0 -16 5
-16 10 0 6 4 10 9 10 6 0 13 -4 16 -10z m-815 -5 c0 -7 -91 -67 -96 -62 -3 2
17 18 43 36 51 32 53 34 53 26z m873 -105 c11 -13 10 -13 -5 -1 -10 7 -17 25
-17 40 l2 26 4 -25 c3 -14 10 -32 16 -40z m1092 -85 c30 -13 58 -31 63 -42 12
-22 22 -153 12 -153 -9 0 -31 25 -45 53 -13 27 -38 36 -28 10 5 -14 1 -13 -20
6 -33 30 -35 51 -4 51 61 0 35 42 -43 71 -33 12 -60 26 -60 31 0 15 63 1 125
-27z m133 -51 c22 -8 44 -25 50 -37 17 -37 48 -187 38 -187 -2 0 -10 -2 -18
-5 -9 -3 -14 4 -15 23 -3 39 -20 82 -34 82 -8 0 -9 -14 -5 -45 4 -25 5 -45 2
-45 -12 0 -35 60 -29 76 4 12 3 15 -5 10 -7 -4 -12 -6 -12 -4 0 15 -20 117
-25 131 -9 21 3 22 53 1z m32 -244 c0 -5 -4 -10 -10 -10 -5 0 -10 5 -10 10 0
6 5 10 10 10 6 0 10 -4 10 -10z m60 -9 c0 -5 -7 -11 -15 -15 -15 -5 -20 5 -8
17 9 10 23 9 23 -2z m23 -121 c-3 -12 0 -20 7 -20 8 0 9 -6 5 -17 -4 -10 -8
-27 -7 -38 0 -15 -4 -12 -14 10 -21 47 -17 104 6 90 5 -3 6 -14 3 -25z m48
-114 c5 -6 9 -19 8 -30 0 -18 -3 -17 -13 7 -7 15 -15 25 -18 22 -3 -4 -9 -2
-13 4 -3 6 -1 11 4 11 6 0 10 3 10 8 -3 18 4 25 8 7 3 -11 9 -24 14 -29z m59
-112 c0 -8 -5 -12 -10 -9 -6 4 -8 11 -5 16 9 14 15 11 15 -7z m-756 -10 c9 -3
16 -11 16 -16 0 -6 -7 -7 -16 -4 -9 4 -23 1 -30 -5 -11 -9 -14 -8 -14 3 0 26
15 33 44 22z m6 -54 c0 -5 -7 -10 -16 -10 -8 0 -12 5 -9 10 3 6 10 10 16 10 5
0 9 -4 9 -10z"/>
<path d="M2035 1830 c3 -5 8 -10 11 -10 2 0 4 5 4 10 0 6 -5 10 -11 10 -5 0
-7 -4 -4 -10z"/>
<path d="M1360 2344 c-14 -36 -3 -131 13 -115 18 18 25 120 10 132 -10 9 -15
4 -23 -17z"/>
<path d="M1511 2314 c0 -11 3 -14 6 -6 3 7 2 16 -1 19 -3 4 -6 -2 -5 -13z"/>
<path d="M3616 2301 c-12 -13 -17 -33 -16 -58 5 -86 1 -114 -21 -155 -21 -36
-69 -75 -114 -91 -5 -2 -3 -21 7 -45 10 -26 14 -56 11 -81 -5 -37 -3 -41 23
-53 39 -17 49 -30 90 -118 66 -144 146 -280 163 -280 17 0 44 54 61 120 l17
67 -26 10 c-33 12 -52 81 -40 146 4 23 10 92 14 152 5 76 15 132 32 180 l24
70 -20 46 c-25 56 -44 73 -101 93 -60 21 -83 20 -104 -3z"/>
<path d="M1450 2235 c-7 -8 -21 -15 -31 -15 -25 0 -42 -35 -34 -71 11 -48 45
-39 73 20 12 26 22 53 22 59 0 19 -17 23 -30 7z"/>
<path d="M3289 2167 c-33 -17 -31 -48 4 -65 57 -27 103 12 60 50 -30 25 -38
27 -64 15z"/>
<path d="M1710 1920 c0 -5 5 -10 10 -10 6 0 10 5 10 10 0 6 -4 10 -10 10 -5 0
-10 -4 -10 -10z"/>
<path d="M3681 491 c-12 -16 -25 -39 -30 -52 -13 -37 12 -104 58 -155 23 -24
46 -54 51 -67 6 -12 19 -36 29 -52 37 -61 3 -133 -67 -142 -94 -13 -44 -23
112 -23 l166 0 0 29 c0 16 -6 34 -13 40 -16 13 -33 88 -42 184 -4 37 -14 81
-22 99 -21 41 -119 136 -160 154 -46 20 -59 18 -82 -15z"/>
</g>
</svg>
